<svg xmlns="http://www.w3.org/2000/svg" width="110" height="22" viewBox="0 0 110 22">
    <g fill="none" fill-rule="evenodd">
        <g fill="#FFF">
            <g>
                <path d="M16.701 8.41V0h4.367v21.156H16.7V12.54H4.367v8.616H0V0h4.367v8.41H16.7zM47.595 0h4.957l-9.708 13.219v7.937h-4.367V13.22L28.71-.001h5.193l6.846 9.207L47.595 0zm29.654 0c2.007 0 3.07 1.062 3.07 3.069v5.31c0 1.151-.945 2.096-2.126 2.096 1.18 0 2.125.944 2.125 2.095v5.518c0 2.006-1.062 3.068-3.069 3.068H59.161V0H77.25zM63.5 8.557H75.98V3.865H63.499v4.692zm0 8.734H75.98v-4.928H63.499v4.928zm46.09-13.426H93.094v4.603h16.052v3.865H93.094v4.958h16.495v3.865H88.728V0h20.86v3.865z" transform="translate(-30 -29) translate(30 29)"/>
            </g>
        </g>
    </g>
</svg>
